<?xml version="1.0" encoding="utf-8" standalone="no"?>
<!DOCTYPE svg PUBLIC "-//W3C//DTD SVG 1.1//EN"
  "http://www.w3.org/Graphics/SVG/1.1/DTD/svg11.dtd">
<!-- Created with matplotlib (https://matplotlib.org/) -->
<svg height="65.23525pt" version="1.1" viewBox="0 0 1367.72572 65.23525" width="1367.72572pt" xmlns="http://www.w3.org/2000/svg" xmlns:xlink="http://www.w3.org/1999/xlink">
 <defs>
  <style type="text/css">
*{stroke-linecap:butt;stroke-linejoin:round;}
  </style>
 </defs>
 <g id="figure_1">
  <g id="patch_1">
   <path d="M 0 65.23525 
L 1367.72572 65.23525 
L 1367.72572 -0 
L 0 -0 
z
" style="fill:#ffffff;"/>
  </g>
  <g id="legend_1">
   <g id="patch_2">
    <path d="M 13.2 58.03525 
L 1354.52572 58.03525 
Q 1360.52572 58.03525 1360.52572 52.03525 
L 1360.52572 13.2 
Q 1360.52572 7.2 1354.52572 7.2 
L 13.2 7.2 
Q 7.2 7.2 7.2 13.2 
L 7.2 52.03525 
Q 7.2 58.03525 13.2 58.03525 
z
" style="fill:#ffffff;opacity:0.8;stroke:#cccccc;stroke-linejoin:miter;"/>
   </g>
   <g id="line2d_1">
    <path d="M 19.2 29.7 
L 79.2 29.7 
" style="fill:none;stroke:#ffffff;stroke-linecap:round;stroke-opacity:0.8;stroke-width:1.5;"/>
   </g>
   <g id="line2d_2">
    <defs>
     <path d="M 0 10 
C 2.652031 10 5.195799 8.946337 7.071068 7.071068 
C 8.946337 5.195799 10 2.652031 10 0 
C 10 -2.652031 8.946337 -5.195799 7.071068 -7.071068 
C 5.195799 -8.946337 2.652031 -10 0 -10 
C -2.652031 -10 -5.195799 -8.946337 -7.071068 -7.071068 
C -8.946337 -5.195799 -10 -2.652031 -10 0 
C -10 2.652031 -8.946337 5.195799 -7.071068 7.071068 
C -5.195799 8.946337 -2.652031 10 0 10 
z
" id="m3beb5baa4a" style="stroke:#000000;stroke-opacity:0.8;"/>
    </defs>
    <g>
     <use style="fill:#808080;fill-opacity:0.8;stroke:#000000;stroke-opacity:0.8;" x="49.2" xlink:href="#m3beb5baa4a" y="29.7"/>
    </g>
   </g>
   <g id="text_1">
    <!-- acquired annotation -->
    <defs>
     <path d="M 37.59375 27.953125 
C 37.59375 37.484375 30.90625 44 21.90625 44 
C 17.5 44 12.703125 43.1875 7.203125 39.984375 
L 7.796875 33.328125 
C 10.296875 35.15625 14.59375 38.09375 21.796875 38.09375 
C 26.90625 38.09375 30 34.140625 30 27.84375 
L 30 24 
C 14 23.5 4 18.890625 4 11.109375 
C 4 7.0625 6.5 -1 14.796875 -1 
C 16.296875 -1 24.40625 -0.8125 30.203125 3.5 
L 30.203125 -0.203125 
L 37.59375 -0.203125 
z
M 30 12.875 
C 30 11.109375 30 8.734375 27 6.96875 
C 24.40625 5.296875 21.09375 5.09375 19.703125 5.09375 
C 14.703125 5.09375 11.296875 7.859375 11.296875 11.296875 
C 11.296875 18.203125 26.90625 18.890625 30 19 
z
" id="CMSS17-97"/>
     <path d="M 38.5 39.6875 
C 38.5 40.390625 33.90625 42.390625 32.703125 42.796875 
C 29.40625 44 25.203125 44 24.09375 44 
C 11.09375 44 3.296875 32.6875 3.296875 21.296875 
C 3.296875 9.296875 12 -1 23.703125 -1 
C 30.40625 -1 35.203125 1.1875 39.09375 3.796875 
L 38.5 10.390625 
C 34.203125 7.09375 29.203125 5.296875 23.796875 5.296875 
C 16 5.296875 10.90625 12.09375 10.90625 21.390625 
C 10.90625 28.59375 14.203125 37.6875 24.203125 37.6875 
C 29.703125 37.6875 32.796875 36.59375 37.40625 33.484375 
z
" id="CMSS17-99"/>
     <path d="M 40.796875 44 
L 33.40625 44 
L 33.40625 37.890625 
C 33 38.390625 28.40625 44 20.59375 44 
C 11.5 44 3.296875 34.65625 3.296875 21.390625 
C 3.296875 9.140625 10.203125 -1 19.203125 -1 
C 23.40625 -1 28.703125 0.5 33.203125 4.796875 
L 33.203125 -20 
L 40.796875 -20 
z
M 33.40625 13.59375 
C 33.40625 12.28125 33.40625 10.453125 30.296875 7.828125 
C 29.5 7.125 27.296875 5.09375 23.5 5.09375 
C 16.40625 5.09375 10.90625 12.578125 10.90625 21.390625 
C 10.90625 31.21875 17.59375 37.6875 24.40625 37.6875 
C 30.09375 37.6875 33.40625 32.015625 33.40625 27.765625 
z
" id="CMSS17-113"/>
     <path d="M 40.90625 43 
L 33.296875 43 
L 33.296875 15.25 
C 33.296875 7.8125 27.90625 4.796875 22.203125 4.796875 
C 15.59375 4.796875 15 7 15 11.125 
L 15 43 
L 7.40625 43 
L 7.40625 10.625 
C 7.40625 2.796875 10.09375 -1 17 -1 
C 20.40625 -1 28.09375 -0.203125 33.5 4.796875 
L 33.5 -0.203125 
L 40.90625 -0.203125 
z
" id="CMSS17-117"/>
     <path d="M 15.296875 66 
L 6.90625 66 
L 6.90625 57.59375 
L 15.296875 57.59375 
z
M 14.796875 43 
L 7.40625 43 
L 7.40625 0 
L 14.796875 0 
z
" id="CMSS17-105"/>
     <path d="M 14.90625 21.390625 
C 14.90625 30.84375 21.796875 37.171875 30.59375 37.375 
L 30.59375 44 
C 24.203125 43.890625 18.203125 40.6875 14.59375 35.46875 
L 14.59375 43.484375 
L 7.5 43.484375 
L 7.5 0 
L 14.90625 0 
z
" id="CMSS17-114"/>
     <path d="M 39.09375 21.484375 
C 39.09375 24.796875 38.90625 31.265625 35.703125 36.671875 
C 32.203125 42.390625 26.5 44 22.203125 44 
C 11.796875 44 3 34.125 3 21.296875 
C 3 9.046875 12.09375 -1 23.59375 -1 
C 28.09375 -1 33.59375 0.296875 38.59375 3.890625 
C 38.59375 4.296875 38.40625 6.46875 38.296875 6.578125 
C 38.296875 6.765625 38 9.828125 38 10.234375 
C 33.203125 6.375 27.703125 5.09375 23.703125 5.09375 
C 17.296875 5.09375 10.40625 10.421875 10.09375 21.484375 
z
M 10.90625 27 
C 12.203125 32.59375 16.59375 37.890625 22.203125 37.890625 
C 23.703125 37.890625 30.703125 37.6875 32.5 27 
z
" id="CMSS17-101"/>
     <path d="M 40.796875 69 
L 33.40625 69 
L 33.40625 38.984375 
C 30.296875 41.59375 25.203125 44 19.59375 44 
C 10.5 44 3.296875 34.046875 3.296875 21.484375 
C 3.296875 8.9375 10.40625 -1 19.296875 -1 
C 26.203125 -1 30.796875 2.6875 33.203125 4.796875 
L 33.203125 -0.203125 
L 40.796875 -0.203125 
z
M 33.203125 13.296875 
C 33.203125 11.875 33.203125 10.359375 30.09375 7.625 
C 28.09375 5.90625 25.703125 5.09375 23.40625 5.09375 
C 18 5.09375 10.90625 9.140625 10.90625 21.390625 
C 10.90625 34.140625 18.90625 37.890625 24.40625 37.890625 
C 28.09375 37.890625 31.09375 36.0625 33.203125 33.03125 
z
" id="CMSS17-100"/>
     <path d="M 40.90625 29.34375 
C 40.90625 35.671875 39.40625 44 28.09375 44 
C 21.703125 44 17.5 40.6875 14.703125 37.28125 
L 14.703125 43.484375 
L 7.40625 43.484375 
L 7.40625 0 
L 15 0 
L 15 24.3125 
C 15 30.65625 17.40625 37.890625 24.203125 37.890625 
C 33 37.890625 33.296875 31.953125 33.296875 28.53125 
L 33.296875 0 
L 40.90625 0 
z
" id="CMSS17-110"/>
     <path d="M 44.203125 21.1875 
C 44.203125 33.984375 34.703125 44 23.5 44 
C 12 44 2.703125 33.6875 2.703125 21.1875 
C 2.703125 8.5 12.296875 -1 23.40625 -1 
C 34.796875 -1 44.203125 8.796875 44.203125 21.1875 
z
M 23.5 5.296875 
C 16.40625 5.296875 10.296875 11.09375 10.296875 21.984375 
C 10.296875 33.59375 17.40625 37.890625 23.40625 37.890625 
C 29.90625 37.890625 36.59375 33.1875 36.59375 21.984375 
C 36.59375 10.6875 30.09375 5.296875 23.5 5.296875 
z
" id="CMSS17-111"/>
     <path d="M 16.703125 37.1875 
L 29.703125 37.1875 
L 29.703125 43 
L 16.703125 43 
L 16.703125 55 
L 9.59375 55 
L 9.59375 43 
L 1.703125 43 
L 1.703125 37.1875 
L 9.40625 37.1875 
L 9.40625 11.734375 
C 9.40625 6 10.703125 -1 17.296875 -1 
C 22.296875 -1 26.90625 0.390625 31.296875 2.6875 
L 29.703125 8.609375 
C 27.296875 6.5 24.40625 5.296875 21.296875 5.296875 
C 16.90625 5.296875 16.703125 10.921875 16.703125 13.4375 
z
" id="CMSS17-116"/>
    </defs>
    <g transform="translate(103.2 40.2)scale(0.3 -0.3)">
     <use transform="translate(0 -0.072667)scale(0.996264)" xlink:href="#CMSS17-97"/>
     <use transform="translate(44.921921 -0.072667)scale(0.996264)" xlink:href="#CMSS17-99"/>
     <use transform="translate(86.560743 -0.072667)scale(0.996264)" xlink:href="#CMSS17-113"/>
     <use transform="translate(134.765686 -0.072667)scale(0.996264)" xlink:href="#CMSS17-117"/>
     <use transform="translate(182.970629 -0.072667)scale(0.996264)" xlink:href="#CMSS17-105"/>
     <use transform="translate(205.151352 -0.072667)scale(0.996264)" xlink:href="#CMSS17-114"/>
     <use transform="translate(237.061125 -0.072667)scale(0.996264)" xlink:href="#CMSS17-101"/>
     <use transform="translate(278.699947 -0.072667)scale(0.996264)" xlink:href="#CMSS17-100"/>
     <use transform="translate(358.134002 -0.072667)scale(0.996264)" xlink:href="#CMSS17-97"/>
     <use transform="translate(403.055923 -0.072667)scale(0.996264)" xlink:href="#CMSS17-110"/>
     <use transform="translate(451.260866 -0.072667)scale(0.996264)" xlink:href="#CMSS17-110"/>
     <use transform="translate(499.465809 -0.072667)scale(0.996264)" xlink:href="#CMSS17-111"/>
     <use transform="translate(546.309433 -0.072667)scale(0.996264)" xlink:href="#CMSS17-116"/>
     <use transform="translate(580.141 -0.072667)scale(0.996264)" xlink:href="#CMSS17-97"/>
     <use transform="translate(625.06292 -0.072667)scale(0.996264)" xlink:href="#CMSS17-116"/>
     <use transform="translate(658.894487 -0.072667)scale(0.996264)" xlink:href="#CMSS17-105"/>
     <use transform="translate(681.07521 -0.072667)scale(0.996264)" xlink:href="#CMSS17-111"/>
     <use transform="translate(727.918833 -0.072667)scale(0.996264)" xlink:href="#CMSS17-110"/>
    </g>
   </g>
   <g id="line2d_3">
    <path d="M 396.91014 29.7 
L 420.91014 29.7 
" style="fill:none;stroke:#ffffff;stroke-linecap:round;stroke-width:1.5;"/>
   </g>
   <g id="line2d_4">
    <defs>
     <path d="M -7.5 7.5 
L 7.5 7.5 
L 7.5 -7.5 
L -7.5 -7.5 
z
" id="m675e42bdf4" style="stroke:#ffffff;stroke-linejoin:miter;"/>
    </defs>
    <g>
     <use style="fill:#0000ff;stroke:#ffffff;stroke-linejoin:miter;" x="408.91014" xlink:href="#m675e42bdf4" y="29.7"/>
    </g>
   </g>
   <g id="line2d_5">
    <path d="M 432.91014 29.7 
L 456.91014 29.7 
" style="fill:none;stroke:#ffffff;stroke-linecap:round;stroke-width:1.5;"/>
   </g>
   <g id="line2d_6">
    <defs>
     <path d="M -7.5 7.5 
L 7.5 7.5 
L 7.5 -7.5 
L -7.5 -7.5 
z
" id="me97c7cc1db" style="stroke:#ffffff;stroke-linejoin:miter;"/>
    </defs>
    <g>
     <use style="fill:#ff0000;stroke:#ffffff;stroke-linejoin:miter;" x="444.91014" xlink:href="#me97c7cc1db" y="29.7"/>
    </g>
   </g>
   <g id="text_2">
    <!-- true annotation -->
    <g transform="translate(480.91014 40.2)scale(0.3 -0.3)">
     <use transform="scale(0.996264)" xlink:href="#CMSS17-116"/>
     <use transform="translate(33.831567 0)scale(0.996264)" xlink:href="#CMSS17-114"/>
     <use transform="translate(65.741339 0)scale(0.996264)" xlink:href="#CMSS17-117"/>
     <use transform="translate(113.946282 0)scale(0.996264)" xlink:href="#CMSS17-101"/>
     <use transform="translate(186.814217 0)scale(0.996264)" xlink:href="#CMSS17-97"/>
     <use transform="translate(231.736138 0)scale(0.996264)" xlink:href="#CMSS17-110"/>
     <use transform="translate(279.941081 0)scale(0.996264)" xlink:href="#CMSS17-110"/>
     <use transform="translate(328.146024 0)scale(0.996264)" xlink:href="#CMSS17-111"/>
     <use transform="translate(374.989648 0)scale(0.996264)" xlink:href="#CMSS17-116"/>
     <use transform="translate(408.821214 0)scale(0.996264)" xlink:href="#CMSS17-97"/>
     <use transform="translate(453.743135 0)scale(0.996264)" xlink:href="#CMSS17-116"/>
     <use transform="translate(487.574702 0)scale(0.996264)" xlink:href="#CMSS17-105"/>
     <use transform="translate(509.755425 0)scale(0.996264)" xlink:href="#CMSS17-111"/>
     <use transform="translate(556.599048 0)scale(0.996264)" xlink:href="#CMSS17-110"/>
    </g>
   </g>
   <g id="line2d_7">
    <path d="M 723.03164 29.7 
L 747.03164 29.7 
" style="fill:none;stroke:#ffffff;stroke-linecap:round;stroke-width:1.5;"/>
   </g>
   <g id="line2d_8">
    <defs>
     <path d="M -7.5 7.5 
L 7.5 -7.5 
M -7.5 -7.5 
L 7.5 7.5 
" id="mafd407a5bd" style="stroke:#0000ff;"/>
    </defs>
    <g>
     <use style="fill:#0000ff;stroke:#0000ff;" x="735.03164" xlink:href="#mafd407a5bd" y="29.7"/>
    </g>
   </g>
   <g id="line2d_9">
    <path d="M 759.03164 29.7 
L 783.03164 29.7 
" style="fill:none;stroke:#ffffff;stroke-linecap:round;stroke-width:1.5;"/>
   </g>
   <g id="line2d_10">
    <defs>
     <path d="M -7.5 7.5 
L 7.5 -7.5 
M -7.5 -7.5 
L 7.5 7.5 
" id="m04c5d739ee" style="stroke:#ff0000;"/>
    </defs>
    <g>
     <use style="fill:#ff0000;stroke:#ff0000;" x="771.03164" xlink:href="#m04c5d739ee" y="29.7"/>
    </g>
   </g>
   <g id="text_3">
    <!-- false annotation -->
    <defs>
     <path d="M 16.796875 37.1875 
L 26.90625 37.1875 
L 26.90625 43 
L 16.59375 43 
L 16.59375 55.671875 
C 16.59375 62.703125 22 63.890625 25.09375 63.890625 
C 26.09375 63.890625 28.90625 63.890625 32.5 62.609375 
L 32.5 69.1875 
C 30.203125 69.6875 27.40625 70 25.203125 70 
C 15.90625 70 9.40625 62.40625 9.40625 52.59375 
L 9.40625 43 
L 2.5 43 
L 2.5 37.1875 
L 9.40625 37.1875 
L 9.40625 0 
L 16.796875 0 
z
" id="CMSS17-102"/>
     <path d="M 14.796875 69 
L 7.40625 69 
L 7.40625 0 
L 14.796875 0 
z
" id="CMSS17-108"/>
     <path d="M 32.203125 40.984375 
C 26.296875 43.796875 21.703125 44 18.703125 44 
C 11.59375 44 3.09375 41.484375 3.09375 31.390625 
C 3.09375 21.296875 14.09375 19.09375 17.09375 18.484375 
C 21.703125 17.59375 26.796875 16.59375 26.796875 11.59375 
C 26.796875 5.296875 19.59375 5.296875 18.296875 5.296875 
C 14.296875 5.296875 8.796875 6.390625 3.796875 9.984375 
L 2.59375 3.296875 
C 8.296875 0 13.796875 -1 18.40625 -1 
C 30.703125 -1 33.796875 6.5 33.796875 12.1875 
C 33.796875 17.09375 31 20.390625 29.09375 21.890625 
C 25.796875 24.484375 24.59375 24.796875 16.40625 26.484375 
C 15 26.6875 10.09375 27.796875 10.09375 32.296875 
C 10.09375 37.984375 16.40625 37.984375 17.796875 37.984375 
C 24.296875 37.984375 28.296875 35.984375 31 34.484375 
z
" id="CMSS17-115"/>
    </defs>
    <g transform="translate(807.03164 40.2)scale(0.3 -0.3)">
     <use transform="scale(0.996264)" xlink:href="#CMSS17-102"/>
     <use transform="translate(28.626659 0)scale(0.996264)" xlink:href="#CMSS17-97"/>
     <use transform="translate(73.548579 0)scale(0.996264)" xlink:href="#CMSS17-108"/>
     <use transform="translate(95.729302 0)scale(0.996264)" xlink:href="#CMSS17-115"/>
     <use transform="translate(131.642844 0)scale(0.996264)" xlink:href="#CMSS17-101"/>
     <use transform="translate(204.510779 0)scale(0.996264)" xlink:href="#CMSS17-97"/>
     <use transform="translate(249.4327 0)scale(0.996264)" xlink:href="#CMSS17-110"/>
     <use transform="translate(297.637643 0)scale(0.996264)" xlink:href="#CMSS17-110"/>
     <use transform="translate(345.842586 0)scale(0.996264)" xlink:href="#CMSS17-111"/>
     <use transform="translate(392.68621 0)scale(0.996264)" xlink:href="#CMSS17-116"/>
     <use transform="translate(426.517776 0)scale(0.996264)" xlink:href="#CMSS17-97"/>
     <use transform="translate(471.439697 0)scale(0.996264)" xlink:href="#CMSS17-116"/>
     <use transform="translate(505.271264 0)scale(0.996264)" xlink:href="#CMSS17-105"/>
     <use transform="translate(527.451987 0)scale(0.996264)" xlink:href="#CMSS17-111"/>
     <use transform="translate(574.29561 0)scale(0.996264)" xlink:href="#CMSS17-110"/>
    </g>
   </g>
   <g id="line2d_11">
    <path d="M 1054.48202 29.7 
L 1114.48202 29.7 
" style="fill:none;stroke:#000000;stroke-linecap:round;stroke-width:2;"/>
   </g>
   <g id="line2d_12"/>
   <g id="text_4">
    <!-- decision boundary -->
    <defs>
     <path d="M 14.90625 69 
L 7.5 69 
L 7.5 -0.203125 
L 15.09375 -0.203125 
L 15.09375 4.296875 
C 18.90625 0.59375 23.5 -1 27.59375 -1 
C 37.203125 -1 45 8.734375 45 21.59375 
C 45 33.328125 39 44 30.09375 44 
C 23.796875 44 18.203125 41.390625 14.90625 38.6875 
z
M 15.09375 32.734375 
C 17.296875 35.5625 20.40625 37.890625 24.796875 37.890625 
C 30.703125 37.890625 37.40625 33.53125 37.40625 21.59375 
C 37.40625 8.84375 29.40625 5.09375 23.90625 5.09375 
C 21.90625 5.09375 19.796875 5.59375 17.796875 7.3125 
C 15.09375 9.75 15.09375 11.265625 15.09375 12.6875 
z
" id="CMSS17-98"/>
     <path d="M 41.796875 43 
L 34 43 
C 25.5 20.203125 22.59375 10.953125 22.40625 5.984375 
L 22.296875 5.984375 
C 22 10.859375 17.59375 22.796875 14.09375 31.34375 
L 9.40625 43 
L 1.296875 43 
L 19 0.21875 
C 17.90625 -2.765625 16.296875 -7.25 15.796875 -8.234375 
C 13.59375 -13.8125 12.09375 -13.8125 10.5 -13.8125 
C 10.09375 -13.8125 6.90625 -13.703125 3.296875 -12.609375 
L 3.90625 -19.203125 
C 6.40625 -19.703125 8.90625 -20 10.703125 -20 
C 13.203125 -20 18.203125 -20 22.796875 -7.734375 
z
" id="CMSS17-121"/>
    </defs>
    <g transform="translate(1138.48202 40.2)scale(0.3 -0.3)">
     <use transform="translate(0 -0.072667)scale(0.996264)" xlink:href="#CMSS17-100"/>
     <use transform="translate(48.204943 -0.072667)scale(0.996264)" xlink:href="#CMSS17-101"/>
     <use transform="translate(89.843765 -0.072667)scale(0.996264)" xlink:href="#CMSS17-99"/>
     <use transform="translate(131.482587 -0.072667)scale(0.996264)" xlink:href="#CMSS17-105"/>
     <use transform="translate(153.66331 -0.072667)scale(0.996264)" xlink:href="#CMSS17-115"/>
     <use transform="translate(189.576852 -0.072667)scale(0.996264)" xlink:href="#CMSS17-105"/>
     <use transform="translate(211.757575 -0.072667)scale(0.996264)" xlink:href="#CMSS17-111"/>
     <use transform="translate(258.601199 -0.072667)scale(0.996264)" xlink:href="#CMSS17-110"/>
     <use transform="translate(338.035255 -0.072667)scale(0.996264)" xlink:href="#CMSS17-98"/>
     <use transform="translate(388.842637 -0.072667)scale(0.996264)" xlink:href="#CMSS17-111"/>
     <use transform="translate(435.68626 -0.072667)scale(0.996264)" xlink:href="#CMSS17-117"/>
     <use transform="translate(483.891203 -0.072667)scale(0.996264)" xlink:href="#CMSS17-110"/>
     <use transform="translate(532.096146 -0.072667)scale(0.996264)" xlink:href="#CMSS17-100"/>
     <use transform="translate(580.30109 -0.072667)scale(0.996264)" xlink:href="#CMSS17-97"/>
     <use transform="translate(622.620556 -0.072667)scale(0.996264)" xlink:href="#CMSS17-114"/>
     <use transform="translate(654.530329 -0.072667)scale(0.996264)" xlink:href="#CMSS17-121"/>
    </g>
   </g>
  </g>
 </g>
</svg>
