<?xml version="1.0" encoding="utf-8" standalone="no"?>
<!DOCTYPE svg PUBLIC "-//W3C//DTD SVG 1.1//EN"
  "http://www.w3.org/Graphics/SVG/1.1/DTD/svg11.dtd">
<!-- Created with matplotlib (https://matplotlib.org/) -->
<svg height="65.23525pt" version="1.1" viewBox="0 0 635.97188 65.23525" width="635.97188pt" xmlns="http://www.w3.org/2000/svg" xmlns:xlink="http://www.w3.org/1999/xlink">
 <defs>
  <style type="text/css">
*{stroke-linecap:butt;stroke-linejoin:round;}
  </style>
 </defs>
 <g id="figure_1">
  <g id="patch_1">
   <path d="M 0 65.23525 
L 635.97188 65.23525 
L 635.97188 -0 
L 0 -0 
z
" style="fill:#ffffff;"/>
  </g>
  <g id="legend_1">
   <g id="patch_2">
    <path d="M 13.2 58.03525 
L 622.77188 58.03525 
Q 628.77188 58.03525 628.77188 52.03525 
L 628.77188 13.2 
Q 628.77188 7.2 622.77188 7.2 
L 13.2 7.2 
Q 7.2 7.2 7.2 13.2 
L 7.2 52.03525 
Q 7.2 58.03525 13.2 58.03525 
z
" style="fill:#ffffff;opacity:0.8;stroke:#cccccc;stroke-linejoin:miter;"/>
   </g>
   <g id="line2d_1">
    <path d="M 19.2 29.7 
L 43.2 29.7 
" style="fill:none;stroke:#ffffff;stroke-linecap:round;stroke-width:1.5;"/>
   </g>
   <g id="line2d_2">
    <defs>
     <path d="M -7.5 7.5 
L 7.5 7.5 
L 7.5 -7.5 
L -7.5 -7.5 
z
" id="m5ad182fe14" style="stroke:#ffffff;stroke-linejoin:miter;"/>
    </defs>
    <g>
     <use style="fill:#0000ff;stroke:#ffffff;stroke-linejoin:miter;" x="31.2" xlink:href="#m5ad182fe14" y="29.7"/>
    </g>
   </g>
   <g id="line2d_3">
    <path d="M 55.2 29.7 
L 79.2 29.7 
" style="fill:none;stroke:#ffffff;stroke-linecap:round;stroke-width:1.5;"/>
   </g>
   <g id="line2d_4">
    <defs>
     <path d="M -7.5 7.5 
L 7.5 7.5 
L 7.5 -7.5 
L -7.5 -7.5 
z
" id="m52b5f89cba" style="stroke:#ffffff;stroke-linejoin:miter;"/>
    </defs>
    <g>
     <use style="fill:#ff0000;stroke:#ffffff;stroke-linejoin:miter;" x="67.2" xlink:href="#m52b5f89cba" y="29.7"/>
    </g>
   </g>
   <g id="text_1">
    <!-- true annotation -->
    <defs>
     <path d="M 16.703125 37.1875 
L 29.703125 37.1875 
L 29.703125 43 
L 16.703125 43 
L 16.703125 55 
L 9.59375 55 
L 9.59375 43 
L 1.703125 43 
L 1.703125 37.1875 
L 9.40625 37.1875 
L 9.40625 11.734375 
C 9.40625 6 10.703125 -1 17.296875 -1 
C 22.296875 -1 26.90625 0.390625 31.296875 2.6875 
L 29.703125 8.609375 
C 27.296875 6.5 24.40625 5.296875 21.296875 5.296875 
C 16.90625 5.296875 16.703125 10.921875 16.703125 13.4375 
z
" id="CMSS17-116"/>
     <path d="M 14.90625 21.390625 
C 14.90625 30.84375 21.796875 37.171875 30.59375 37.375 
L 30.59375 44 
C 24.203125 43.890625 18.203125 40.6875 14.59375 35.46875 
L 14.59375 43.484375 
L 7.5 43.484375 
L 7.5 0 
L 14.90625 0 
z
" id="CMSS17-114"/>
     <path d="M 40.90625 43 
L 33.296875 43 
L 33.296875 15.25 
C 33.296875 7.8125 27.90625 4.796875 22.203125 4.796875 
C 15.59375 4.796875 15 7 15 11.125 
L 15 43 
L 7.40625 43 
L 7.40625 10.625 
C 7.40625 2.796875 10.09375 -1 17 -1 
C 20.40625 -1 28.09375 -0.203125 33.5 4.796875 
L 33.5 -0.203125 
L 40.90625 -0.203125 
z
" id="CMSS17-117"/>
     <path d="M 39.09375 21.484375 
C 39.09375 24.796875 38.90625 31.265625 35.703125 36.671875 
C 32.203125 42.390625 26.5 44 22.203125 44 
C 11.796875 44 3 34.125 3 21.296875 
C 3 9.046875 12.09375 -1 23.59375 -1 
C 28.09375 -1 33.59375 0.296875 38.59375 3.890625 
C 38.59375 4.296875 38.40625 6.46875 38.296875 6.578125 
C 38.296875 6.765625 38 9.828125 38 10.234375 
C 33.203125 6.375 27.703125 5.09375 23.703125 5.09375 
C 17.296875 5.09375 10.40625 10.421875 10.09375 21.484375 
z
M 10.90625 27 
C 12.203125 32.59375 16.59375 37.890625 22.203125 37.890625 
C 23.703125 37.890625 30.703125 37.6875 32.5 27 
z
" id="CMSS17-101"/>
     <path d="M 37.59375 27.953125 
C 37.59375 37.484375 30.90625 44 21.90625 44 
C 17.5 44 12.703125 43.1875 7.203125 39.984375 
L 7.796875 33.328125 
C 10.296875 35.15625 14.59375 38.09375 21.796875 38.09375 
C 26.90625 38.09375 30 34.140625 30 27.84375 
L 30 24 
C 14 23.5 4 18.890625 4 11.109375 
C 4 7.0625 6.5 -1 14.796875 -1 
C 16.296875 -1 24.40625 -0.8125 30.203125 3.5 
L 30.203125 -0.203125 
L 37.59375 -0.203125 
z
M 30 12.875 
C 30 11.109375 30 8.734375 27 6.96875 
C 24.40625 5.296875 21.09375 5.09375 19.703125 5.09375 
C 14.703125 5.09375 11.296875 7.859375 11.296875 11.296875 
C 11.296875 18.203125 26.90625 18.890625 30 19 
z
" id="CMSS17-97"/>
     <path d="M 40.90625 29.34375 
C 40.90625 35.671875 39.40625 44 28.09375 44 
C 21.703125 44 17.5 40.6875 14.703125 37.28125 
L 14.703125 43.484375 
L 7.40625 43.484375 
L 7.40625 0 
L 15 0 
L 15 24.3125 
C 15 30.65625 17.40625 37.890625 24.203125 37.890625 
C 33 37.890625 33.296875 31.953125 33.296875 28.53125 
L 33.296875 0 
L 40.90625 0 
z
" id="CMSS17-110"/>
     <path d="M 44.203125 21.1875 
C 44.203125 33.984375 34.703125 44 23.5 44 
C 12 44 2.703125 33.6875 2.703125 21.1875 
C 2.703125 8.5 12.296875 -1 23.40625 -1 
C 34.796875 -1 44.203125 8.796875 44.203125 21.1875 
z
M 23.5 5.296875 
C 16.40625 5.296875 10.296875 11.09375 10.296875 21.984375 
C 10.296875 33.59375 17.40625 37.890625 23.40625 37.890625 
C 29.90625 37.890625 36.59375 33.1875 36.59375 21.984375 
C 36.59375 10.6875 30.09375 5.296875 23.5 5.296875 
z
" id="CMSS17-111"/>
     <path d="M 15.296875 66 
L 6.90625 66 
L 6.90625 57.59375 
L 15.296875 57.59375 
z
M 14.796875 43 
L 7.40625 43 
L 7.40625 0 
L 14.796875 0 
z
" id="CMSS17-105"/>
    </defs>
    <g transform="translate(103.2 40.2)scale(0.3 -0.3)">
     <use transform="scale(0.996264)" xlink:href="#CMSS17-116"/>
     <use transform="translate(33.831567 0)scale(0.996264)" xlink:href="#CMSS17-114"/>
     <use transform="translate(65.741339 0)scale(0.996264)" xlink:href="#CMSS17-117"/>
     <use transform="translate(113.946282 0)scale(0.996264)" xlink:href="#CMSS17-101"/>
     <use transform="translate(186.814217 0)scale(0.996264)" xlink:href="#CMSS17-97"/>
     <use transform="translate(231.736138 0)scale(0.996264)" xlink:href="#CMSS17-110"/>
     <use transform="translate(279.941081 0)scale(0.996264)" xlink:href="#CMSS17-110"/>
     <use transform="translate(328.146024 0)scale(0.996264)" xlink:href="#CMSS17-111"/>
     <use transform="translate(374.989648 0)scale(0.996264)" xlink:href="#CMSS17-116"/>
     <use transform="translate(408.821214 0)scale(0.996264)" xlink:href="#CMSS17-97"/>
     <use transform="translate(453.743135 0)scale(0.996264)" xlink:href="#CMSS17-116"/>
     <use transform="translate(487.574702 0)scale(0.996264)" xlink:href="#CMSS17-105"/>
     <use transform="translate(509.755425 0)scale(0.996264)" xlink:href="#CMSS17-111"/>
     <use transform="translate(556.599048 0)scale(0.996264)" xlink:href="#CMSS17-110"/>
    </g>
   </g>
   <g id="line2d_5">
    <path d="M 345.3215 29.7 
L 369.3215 29.7 
" style="fill:none;stroke:#ffffff;stroke-linecap:round;stroke-width:1.5;"/>
   </g>
   <g id="line2d_6">
    <defs>
     <path d="M -7.5 7.5 
L 7.5 -7.5 
M -7.5 -7.5 
L 7.5 7.5 
" id="m187f1dbb95" style="stroke:#0000ff;"/>
    </defs>
    <g>
     <use style="fill:#0000ff;stroke:#0000ff;" x="357.3215" xlink:href="#m187f1dbb95" y="29.7"/>
    </g>
   </g>
   <g id="line2d_7">
    <path d="M 381.3215 29.7 
L 405.3215 29.7 
" style="fill:none;stroke:#ffffff;stroke-linecap:round;stroke-width:1.5;"/>
   </g>
   <g id="line2d_8">
    <defs>
     <path d="M -7.5 7.5 
L 7.5 -7.5 
M -7.5 -7.5 
L 7.5 7.5 
" id="m77c45aa63b" style="stroke:#ff0000;"/>
    </defs>
    <g>
     <use style="fill:#ff0000;stroke:#ff0000;" x="393.3215" xlink:href="#m77c45aa63b" y="29.7"/>
    </g>
   </g>
   <g id="text_2">
    <!-- false annotation -->
    <defs>
     <path d="M 16.796875 37.1875 
L 26.90625 37.1875 
L 26.90625 43 
L 16.59375 43 
L 16.59375 55.671875 
C 16.59375 62.703125 22 63.890625 25.09375 63.890625 
C 26.09375 63.890625 28.90625 63.890625 32.5 62.609375 
L 32.5 69.1875 
C 30.203125 69.6875 27.40625 70 25.203125 70 
C 15.90625 70 9.40625 62.40625 9.40625 52.59375 
L 9.40625 43 
L 2.5 43 
L 2.5 37.1875 
L 9.40625 37.1875 
L 9.40625 0 
L 16.796875 0 
z
" id="CMSS17-102"/>
     <path d="M 14.796875 69 
L 7.40625 69 
L 7.40625 0 
L 14.796875 0 
z
" id="CMSS17-108"/>
     <path d="M 32.203125 40.984375 
C 26.296875 43.796875 21.703125 44 18.703125 44 
C 11.59375 44 3.09375 41.484375 3.09375 31.390625 
C 3.09375 21.296875 14.09375 19.09375 17.09375 18.484375 
C 21.703125 17.59375 26.796875 16.59375 26.796875 11.59375 
C 26.796875 5.296875 19.59375 5.296875 18.296875 5.296875 
C 14.296875 5.296875 8.796875 6.390625 3.796875 9.984375 
L 2.59375 3.296875 
C 8.296875 0 13.796875 -1 18.40625 -1 
C 30.703125 -1 33.796875 6.5 33.796875 12.1875 
C 33.796875 17.09375 31 20.390625 29.09375 21.890625 
C 25.796875 24.484375 24.59375 24.796875 16.40625 26.484375 
C 15 26.6875 10.09375 27.796875 10.09375 32.296875 
C 10.09375 37.984375 16.40625 37.984375 17.796875 37.984375 
C 24.296875 37.984375 28.296875 35.984375 31 34.484375 
z
" id="CMSS17-115"/>
    </defs>
    <g transform="translate(429.3215 40.2)scale(0.3 -0.3)">
     <use transform="scale(0.996264)" xlink:href="#CMSS17-102"/>
     <use transform="translate(28.626659 0)scale(0.996264)" xlink:href="#CMSS17-97"/>
     <use transform="translate(73.548579 0)scale(0.996264)" xlink:href="#CMSS17-108"/>
     <use transform="translate(95.729302 0)scale(0.996264)" xlink:href="#CMSS17-115"/>
     <use transform="translate(131.642844 0)scale(0.996264)" xlink:href="#CMSS17-101"/>
     <use transform="translate(204.510779 0)scale(0.996264)" xlink:href="#CMSS17-97"/>
     <use transform="translate(249.4327 0)scale(0.996264)" xlink:href="#CMSS17-110"/>
     <use transform="translate(297.637643 0)scale(0.996264)" xlink:href="#CMSS17-110"/>
     <use transform="translate(345.842586 0)scale(0.996264)" xlink:href="#CMSS17-111"/>
     <use transform="translate(392.68621 0)scale(0.996264)" xlink:href="#CMSS17-116"/>
     <use transform="translate(426.517776 0)scale(0.996264)" xlink:href="#CMSS17-97"/>
     <use transform="translate(471.439697 0)scale(0.996264)" xlink:href="#CMSS17-116"/>
     <use transform="translate(505.271264 0)scale(0.996264)" xlink:href="#CMSS17-105"/>
     <use transform="translate(527.451987 0)scale(0.996264)" xlink:href="#CMSS17-111"/>
     <use transform="translate(574.29561 0)scale(0.996264)" xlink:href="#CMSS17-110"/>
    </g>
   </g>
  </g>
 </g>
</svg>
